<mxfile host="app.diagrams.net" modified="2022-04-27T09:33:41.962Z" agent="5.0 (Windows)" etag="zaQap1VOim-wV8mu-9eM" version="17.4.6" type="github">
  <diagram id="U_GDBTo5VG5hcJ3HHBJ4" name="Page-1">
    <mxGraphModel dx="583" dy="367" grid="0" gridSize="10" guides="1" tooltips="1" connect="1" arrows="1" fold="1" page="1" pageScale="1" pageWidth="827" pageHeight="1169" math="0" shadow="0">
      <root>
        <mxCell id="0" />
        <mxCell id="1" parent="0" />
        <mxCell id="BB27fuwjgBe4qtjf1dp3-1" value="&lt;font style=&quot;font-size: 10px&quot;&gt;x1(t = 300)&lt;/font&gt;" style="rounded=0;whiteSpace=wrap;html=1;fontFamily=Tahoma;" parent="1" vertex="1">
          <mxGeometry x="460" y="80" width="60" height="40" as="geometry" />
        </mxCell>
        <mxCell id="BB27fuwjgBe4qtjf1dp3-2" value="&lt;font style=&quot;font-size: 10px&quot;&gt;x1(t = 250)&lt;/font&gt;" style="rounded=0;whiteSpace=wrap;html=1;fontFamily=Tahoma;" parent="1" vertex="1">
          <mxGeometry x="380" y="80" width="60" height="40" as="geometry" />
        </mxCell>
        <mxCell id="BB27fuwjgBe4qtjf1dp3-3" value="..." style="rounded=0;whiteSpace=wrap;html=1;fontFamily=Tahoma;" parent="1" vertex="1">
          <mxGeometry x="440" y="80" width="20" height="40" as="geometry" />
        </mxCell>
        <mxCell id="BB27fuwjgBe4qtjf1dp3-4" value="..." style="rounded=0;whiteSpace=wrap;html=1;fontFamily=Tahoma;" parent="1" vertex="1">
          <mxGeometry x="220" y="80" width="20" height="40" as="geometry" />
        </mxCell>
        <mxCell id="BB27fuwjgBe4qtjf1dp3-5" value="&lt;font style=&quot;font-size: 10px&quot;&gt;x1(t = 249)&lt;/font&gt;" style="rounded=0;whiteSpace=wrap;html=1;fontFamily=Tahoma;" parent="1" vertex="1">
          <mxGeometry x="320" y="80" width="60" height="40" as="geometry" />
        </mxCell>
        <mxCell id="BB27fuwjgBe4qtjf1dp3-6" value="&lt;font style=&quot;font-size: 10px&quot;&gt;x1(t = 50)&lt;/font&gt;" style="rounded=0;whiteSpace=wrap;html=1;fontFamily=Tahoma;" parent="1" vertex="1">
          <mxGeometry x="240" y="80" width="60" height="40" as="geometry" />
        </mxCell>
        <mxCell id="BB27fuwjgBe4qtjf1dp3-7" value="&lt;font style=&quot;font-size: 10px&quot;&gt;x1(t = 0)&lt;/font&gt;" style="rounded=0;whiteSpace=wrap;html=1;fontFamily=Tahoma;" parent="1" vertex="1">
          <mxGeometry x="160" y="80" width="60" height="40" as="geometry" />
        </mxCell>
        <mxCell id="BB27fuwjgBe4qtjf1dp3-8" value="..." style="rounded=0;whiteSpace=wrap;html=1;fontFamily=Tahoma;" parent="1" vertex="1">
          <mxGeometry x="520" y="80" width="20" height="40" as="geometry" />
        </mxCell>
        <mxCell id="BB27fuwjgBe4qtjf1dp3-9" value="&lt;font style=&quot;font-size: 10px&quot;&gt;x1(t = 350)&lt;/font&gt;" style="rounded=0;whiteSpace=wrap;html=1;fontFamily=Tahoma;" parent="1" vertex="1">
          <mxGeometry x="540" y="80" width="60" height="40" as="geometry" />
        </mxCell>
        <mxCell id="BB27fuwjgBe4qtjf1dp3-10" value="..." style="rounded=0;whiteSpace=wrap;html=1;fontFamily=Tahoma;" parent="1" vertex="1">
          <mxGeometry x="600" y="80" width="20" height="40" as="geometry" />
        </mxCell>
        <mxCell id="BB27fuwjgBe4qtjf1dp3-11" value="..." style="rounded=0;whiteSpace=wrap;html=1;fontFamily=Tahoma;" parent="1" vertex="1">
          <mxGeometry x="300" y="80" width="20" height="40" as="geometry" />
        </mxCell>
        <mxCell id="BB27fuwjgBe4qtjf1dp3-12" value="&lt;font style=&quot;font-size: 10px&quot;&gt;x2(t = 300)&lt;/font&gt;" style="rounded=0;whiteSpace=wrap;html=1;fontFamily=Tahoma;" parent="1" vertex="1">
          <mxGeometry x="460" y="120" width="60" height="40" as="geometry" />
        </mxCell>
        <mxCell id="BB27fuwjgBe4qtjf1dp3-13" value="&lt;font style=&quot;font-size: 10px&quot;&gt;x2(t = 250)&lt;/font&gt;" style="rounded=0;whiteSpace=wrap;html=1;fontFamily=Tahoma;" parent="1" vertex="1">
          <mxGeometry x="380" y="120" width="60" height="40" as="geometry" />
        </mxCell>
        <mxCell id="BB27fuwjgBe4qtjf1dp3-14" value="..." style="rounded=0;whiteSpace=wrap;html=1;fontFamily=Tahoma;" parent="1" vertex="1">
          <mxGeometry x="440" y="120" width="20" height="40" as="geometry" />
        </mxCell>
        <mxCell id="BB27fuwjgBe4qtjf1dp3-15" value="..." style="rounded=0;whiteSpace=wrap;html=1;fontFamily=Tahoma;" parent="1" vertex="1">
          <mxGeometry x="220" y="120" width="20" height="40" as="geometry" />
        </mxCell>
        <mxCell id="BB27fuwjgBe4qtjf1dp3-16" value="&lt;font style=&quot;font-size: 10px&quot;&gt;x2(t = 249)&lt;/font&gt;" style="rounded=0;whiteSpace=wrap;html=1;fontFamily=Tahoma;" parent="1" vertex="1">
          <mxGeometry x="320" y="120" width="60" height="40" as="geometry" />
        </mxCell>
        <mxCell id="BB27fuwjgBe4qtjf1dp3-17" value="&lt;font style=&quot;font-size: 10px&quot;&gt;x2(t = 50)&lt;/font&gt;" style="rounded=0;whiteSpace=wrap;html=1;fontFamily=Tahoma;" parent="1" vertex="1">
          <mxGeometry x="240" y="120" width="60" height="40" as="geometry" />
        </mxCell>
        <mxCell id="BB27fuwjgBe4qtjf1dp3-18" value="&lt;font style=&quot;font-size: 10px&quot;&gt;x2(t = 0)&lt;/font&gt;" style="rounded=0;whiteSpace=wrap;html=1;fontFamily=Tahoma;" parent="1" vertex="1">
          <mxGeometry x="160" y="120" width="60" height="40" as="geometry" />
        </mxCell>
        <mxCell id="BB27fuwjgBe4qtjf1dp3-19" value="..." style="rounded=0;whiteSpace=wrap;html=1;fontFamily=Tahoma;" parent="1" vertex="1">
          <mxGeometry x="520" y="120" width="20" height="40" as="geometry" />
        </mxCell>
        <mxCell id="BB27fuwjgBe4qtjf1dp3-20" value="&lt;font style=&quot;font-size: 10px&quot;&gt;x2(t = 350)&lt;/font&gt;" style="rounded=0;whiteSpace=wrap;html=1;fontFamily=Tahoma;" parent="1" vertex="1">
          <mxGeometry x="540" y="120" width="60" height="40" as="geometry" />
        </mxCell>
        <mxCell id="BB27fuwjgBe4qtjf1dp3-21" value="..." style="rounded=0;whiteSpace=wrap;html=1;fontFamily=Tahoma;" parent="1" vertex="1">
          <mxGeometry x="600" y="120" width="20" height="40" as="geometry" />
        </mxCell>
        <mxCell id="BB27fuwjgBe4qtjf1dp3-22" value="..." style="rounded=0;whiteSpace=wrap;html=1;fontFamily=Tahoma;" parent="1" vertex="1">
          <mxGeometry x="300" y="120" width="20" height="40" as="geometry" />
        </mxCell>
        <mxCell id="BB27fuwjgBe4qtjf1dp3-23" value="" style="strokeWidth=1.5;html=1;shape=mxgraph.flowchart.annotation_2;align=left;labelPosition=right;pointerEvents=1;fontSize=10;rotation=-90;fontFamily=Tahoma;" parent="1" vertex="1">
          <mxGeometry x="265" y="60" width="10" height="220" as="geometry" />
        </mxCell>
        <mxCell id="BB27fuwjgBe4qtjf1dp3-24" value="Sample 0 Input" style="text;html=1;strokeColor=none;fillColor=none;align=center;verticalAlign=middle;whiteSpace=wrap;rounded=0;fontSize=10;fontFamily=Tahoma;" parent="1" vertex="1">
          <mxGeometry x="234.06" y="170" width="71.87" height="30" as="geometry" />
        </mxCell>
        <mxCell id="BB27fuwjgBe4qtjf1dp3-26" value="Sample 0 Output" style="text;html=1;strokeColor=none;fillColor=none;align=center;verticalAlign=middle;whiteSpace=wrap;rounded=0;fontSize=10;fontFamily=Tahoma;" parent="1" vertex="1">
          <mxGeometry x="440.01" y="170" width="100" height="30" as="geometry" />
        </mxCell>
        <mxCell id="BB27fuwjgBe4qtjf1dp3-28" value="Sample 1 Input" style="text;html=1;strokeColor=none;fillColor=none;align=center;verticalAlign=middle;whiteSpace=wrap;rounded=0;fontSize=10;fontFamily=Tahoma;" parent="1" vertex="1">
          <mxGeometry x="314.07" y="204" width="71.87" height="30" as="geometry" />
        </mxCell>
        <mxCell id="BB27fuwjgBe4qtjf1dp3-30" value="Sample 1 Output" style="text;html=1;strokeColor=none;fillColor=none;align=center;verticalAlign=middle;whiteSpace=wrap;rounded=0;fontSize=10;fontFamily=Tahoma;" parent="1" vertex="1">
          <mxGeometry x="490" y="204" width="100" height="30" as="geometry" />
        </mxCell>
        <mxCell id="0HNvvGG55G2cPewQk-Xg-3" value="" style="strokeWidth=1.5;html=1;shape=mxgraph.flowchart.annotation_2;align=left;labelPosition=right;pointerEvents=1;fontSize=10;rotation=-90;fontFamily=Tahoma;" parent="1" vertex="1">
          <mxGeometry x="345" y="94" width="10" height="220" as="geometry" />
        </mxCell>
        <mxCell id="0HNvvGG55G2cPewQk-Xg-4" value="" style="strokeWidth=1.5;html=1;shape=mxgraph.flowchart.annotation_2;align=left;labelPosition=right;pointerEvents=1;fontSize=10;rotation=-90;fontFamily=Tahoma;" parent="1" vertex="1">
          <mxGeometry x="485" y="60" width="10" height="220" as="geometry" />
        </mxCell>
        <mxCell id="0HNvvGG55G2cPewQk-Xg-5" value="" style="strokeWidth=1.5;html=1;shape=mxgraph.flowchart.annotation_2;align=left;labelPosition=right;pointerEvents=1;fontSize=10;rotation=-90;fontFamily=Tahoma;" parent="1" vertex="1">
          <mxGeometry x="535" y="124" width="10" height="160" as="geometry" />
        </mxCell>
      </root>
    </mxGraphModel>
  </diagram>
</mxfile>
